<svg xmlns="http://www.w3.org/2000/svg" id="Layer_1" enable-background="new 0 0 30.402 100" viewBox="0 0 30.402 100" x="0px" y="0px" width="100px" height="100px" xmlns:xml="http://www.w3.org/XML/1998/namespace" xml:space="preserve" version="1.0">
<path d="M 21.737 22.787 C 23.065 11.455 24.592 0 15.201 0 C 5.809 0 7.336 11.455 8.664 22.787 H 21.737 Z" />
<path d="M 20.896 32.655 c 0.033 -1.656 0.159 -3.407 0.331 -5.203 H 9.174 C 9.346 29.249 9.472 31 9.505 32.655 H 20.896 Z" />
<path d="M 21.13 37.321 H 9.271 c -0.237 1.659 -0.667 3.121 -1.369 4.302 c -17.43 29.367 -0.895 54.357 1.2 57.061 C 9.959 99.791 13.657 100 15.201 100 c 1.543 0 5.241 -0.21 6.099 -1.316 c 2.095 -2.704 18.63 -27.694 1.2 -57.061 C 21.797 40.441 21.368 38.979 21.13 37.321 Z" />
</svg>